<?xml version="1.0" encoding="UTF-8"?>
<svg version="1.1" xmlns="http://www.w3.org/2000/svg" width="300" height="106">
<path d="M0 0 C5.28 0 10.56 0 16 0 C18.24389385 4.74968969 20.48586137 9.50028202 22.72607422 14.25170898 C23.48791913 15.86686552 24.25028331 17.48177723 25.01318359 19.09643555 C26.11172992 21.4217158 27.20838566 23.7478796 28.3046875 26.07421875 C28.6443454 26.79212082 28.9840033 27.51002289 29.33395386 28.24967957 C31.0026715 31.79540933 32.59539177 35.33865456 34 39 C37.08179784 35.34688104 38.85285173 31.27384204 40.79296875 26.953125 C41.14386063 26.18192322 41.4947525 25.41072144 41.85627747 24.6161499 C42.97126697 22.1628156 44.07946308 19.70648106 45.1875 17.25 C45.9442147 15.58182852 46.70137124 13.91385739 47.45898438 12.24609375 C49.3111166 8.16636597 51.15716398 4.08393484 53 0 C58.28 0 63.56 0 69 0 C69 0.99 69 1.98 69 3 C67.02 3.66 65.04 4.32 63 5 C63 19.85 63 34.7 63 50 C64.98 50.99 66.96 51.98 69 53 C69 53.66 69 54.32 69 55 C61.41 55 53.82 55 46 55 C46 54.34 46 53.68 46 53 C47.98 52.01 49.96 51.02 52 50 C52 38.78 52 27.56 52 16 C46.06 28.87 40.12 41.74 34 55 C33.01 55 32.02 55 31 55 C28.91719023 50.57159068 26.83594719 46.14244963 24.75610352 41.71264648 C24.04949438 40.20821638 23.34247005 38.70398121 22.63500977 37.19995117 C21.61363189 35.02835353 20.59378784 32.8560411 19.57421875 30.68359375 C19.26159592 30.01976181 18.94897308 29.35592987 18.62687683 28.67198181 C18.32679214 28.03184647 18.02670746 27.39171112 17.7175293 26.73217773 C17.45771774 26.17924545 17.19790619 25.62631317 16.93022156 25.05662537 C15.57401548 22.05819151 14.2963417 19.0247973 13 16 C13 27.55 13 39.1 13 51 C14.98 51.66 16.96 52.32 19 53 C19 53.66 19 54.32 19 55 C12.73 55 6.46 55 0 55 C0 54.34 0 53.68 0 53 C1.98 52.01 3.96 51.02 6 50 C6 34.82 6 19.64 6 4 C3.03 3.505 3.03 3.505 0 3 C0 2.01 0 1.02 0 0 Z " fill="#231F21" transform="translate(121,0)"/>
<path d="M0 0 C38.35460792 -0.58729082 38.35460792 -0.58729082 47.01171875 6.69140625 C53.01105255 13.3899631 55.67577937 20.67832399 55.27734375 29.71484375 C54.26367416 38.06691007 51.57227016 44.53782537 45 50 C38.2944163 53.90122492 32.32251594 55.12826395 24.609375 55.09765625 C23.90476135 55.0962413 23.20014771 55.09482635 22.47418213 55.09336853 C20.23274416 55.08778933 17.99140757 55.07524073 15.75 55.0625 C14.22656395 55.05748231 12.70312632 55.05291987 11.1796875 55.04882812 C7.45309228 55.03782674 3.72655604 55.02057646 0 55 C0 54.34 0 53.68 0 53 C1.98 52.34 3.96 51.68 6 51 C6 35.82 6 20.64 6 5 C4.02 4.34 2.04 3.68 0 3 C0 2.01 0 1.02 0 0 Z M16 5 C16 19.85 16 34.7 16 50 C20.46377118 52.23188559 26.57375772 51.64892681 31.29296875 50.38671875 C37.32354043 47.7388662 41.39520671 43.05055999 43.8125 36.94921875 C46.22863953 28.30816417 45.08052479 20.87206057 41 13 C36.60936603 7.20436316 31.77461505 5.17090904 24.7109375 4.09375 C21.43275371 3.89063816 21.43275371 3.89063816 16 5 Z " fill="#231F21" transform="translate(243,0)"/>
<path d="M0 0 C14.19 0 28.38 0 43 0 C43 4.29 43 8.58 43 13 C42.01 13 41.02 13 40 13 C39.566875 11.865625 39.13375 10.73125 38.6875 9.5625 C38.130625 8.386875 37.57375 7.21125 37 6 C34.34081834 5.11360611 32.51935359 4.82010975 29.76953125 4.68359375 C29.04612549 4.64548584 28.32271973 4.60737793 27.57739258 4.56811523 C26.66497803 4.52501221 25.75256348 4.48190918 24.8125 4.4375 C21.904375 4.293125 18.99625 4.14875 16 4 C16 10.93 16 17.86 16 25 C18.743125 24.79375 21.48625 24.5875 24.3125 24.375 C25.17270752 24.32520996 26.03291504 24.27541992 26.91918945 24.22412109 C29.09011877 24.01356016 30.95064275 23.75974581 33 23 C35.13269884 20.0738321 35.13269884 20.0738321 36 17 C36.66 17 37.32 17 38 17 C38 23.27 38 29.54 38 36 C37.01 35.67 36.02 35.34 35 35 C34.33333333 33.33333333 33.66666667 31.66666667 33 30 C29.53287889 28.84429296 26.4585044 28.67164707 22.8125 28.4375 C21.54019531 28.35371094 20.26789063 28.26992188 18.95703125 28.18359375 C17.98121094 28.12300781 17.00539062 28.06242187 16 28 C16.14104691 30.91697011 16.28764814 33.8334802 16.4375 36.75 C16.47681641 37.575 16.51613281 38.4 16.55664062 39.25 C16.59853516 40.04921875 16.64042969 40.8484375 16.68359375 41.671875 C16.72025146 42.4050293 16.75690918 43.13818359 16.79467773 43.89355469 C17.00114785 46.01177605 17.43132086 47.9519456 18 50 C20.89684158 50.10829314 23.78961019 50.18743954 26.6875 50.25 C27.50412109 50.28351562 28.32074219 50.31703125 29.16210938 50.3515625 C33.2589003 50.41790729 35.41944873 50.35913525 38.98046875 48.15625 C41.11343357 46.03534577 41.11343357 46.03534577 42.625 43.25 C43.07875 42.5075 43.5325 41.765 44 41 C44.99 41 45.98 41 47 41 C46.52188823 42.77111844 46.0424722 44.54188483 45.5625 46.3125 C45.29566406 47.29863281 45.02882812 48.28476562 44.75390625 49.30078125 C44.21920575 51.21517526 43.62855462 53.11433615 43 55 C28.81 55 14.62 55 0 55 C0 54.34 0 53.68 0 53 C0.969375 52.71125 1.93875 52.4225 2.9375 52.125 C6.10664203 51.35785318 6.10664203 51.35785318 7 49 C7.09412461 47.62167729 7.12793566 46.23895393 7.12939453 44.85742188 C7.13412277 43.57599304 7.13412277 43.57599304 7.13894653 42.26867676 C7.1369223 41.34470093 7.13489807 40.4207251 7.1328125 39.46875 C7.13376923 38.52189331 7.13472595 37.57503662 7.13571167 36.5994873 C7.13639286 34.59545831 7.1345428 32.59142711 7.13037109 30.58740234 C7.125022 27.5126451 7.13031814 24.43803393 7.13671875 21.36328125 C7.13605796 19.41927051 7.13477677 17.47525986 7.1328125 15.53125 C7.13483673 14.60727417 7.13686096 13.68329834 7.13894653 12.73132324 C7.13579437 11.87703735 7.13264221 11.02275146 7.12939453 10.14257812 C7.12859894 9.38916138 7.12780334 8.63574463 7.12698364 7.85949707 C7.11353076 5.906031 7.11353076 5.906031 6 4 C2.97065509 3.34227572 2.97065509 3.34227572 0 3 C0 2.01 0 1.02 0 0 Z " fill="#221F21" transform="translate(195,0)"/>
<path d="M0 0 C13.86 0 27.72 0 42 0 C42 4.29 42 8.58 42 13 C41.34 13 40.68 13 40 13 C39.5875 11.865625 39.175 10.73125 38.75 9.5625 C37.47289689 5.9382651 37.47289689 5.9382651 35.14746094 5.29711914 C33.05450553 5.0075413 31.00057452 4.79548501 28.890625 4.68359375 C28.21032227 4.64548584 27.53001953 4.60737793 26.82910156 4.56811523 C25.97799805 4.52501221 25.12689453 4.48190918 24.25 4.4375 C21.5275 4.293125 18.805 4.14875 16 4 C16 10.93 16 17.86 16 25 C24.415 24.01 24.415 24.01 33 23 C33.66 21.02 34.32 19.04 35 17 C35.99 17 36.98 17 38 17 C38 23.27 38 29.54 38 36 C37.01 36 36.02 36 35 36 C34.7525 35.030625 34.505 34.06125 34.25 33.0625 C33.8375 32.051875 33.425 31.04125 33 30 C29.61089674 28.65714777 25.85441517 28.68980906 22.25 28.4375 C20.1875 28.293125 18.125 28.14875 16 28 C16.33 35.26 16.66 42.52 17 50 C19.866875 50.061875 22.73375 50.12375 25.6875 50.1875 C26.58170654 50.21481201 27.47591309 50.24212402 28.3972168 50.27026367 C33.09415838 50.3192505 36.21577615 50.09618315 40 47 C42.29582863 43.93282876 42.29582863 43.93282876 44 41 C44.99 41.33 45.98 41.66 47 42 C46.35780498 43.98035021 45.71114356 45.95925256 45.0625 47.9375 C44.70285156 49.03964844 44.34320313 50.14179687 43.97265625 51.27734375 C43 54 43 54 42 55 C38.89748799 55.08874135 35.8173188 55.11518455 32.71484375 55.09765625 C31.78402481 55.0962413 30.85320587 55.09482635 29.8941803 55.09336853 C26.90858809 55.08775172 23.92306971 55.0751964 20.9375 55.0625 C18.91862087 55.05748716 16.89974057 55.05292388 14.88085938 55.04882812 C9.92054428 55.03777683 4.96028468 55.02050095 0 55 C0 54.34 0 53.68 0 53 C0.969375 52.7525 1.93875 52.505 2.9375 52.25 C3.948125 51.8375 4.95875 51.425 6 51 C7.05721253 48.21442993 7.12222058 45.55499603 7.11352539 42.59863281 C7.11344986 41.7380426 7.11337433 40.87745239 7.11329651 39.99078369 C7.10813522 39.07085632 7.10297394 38.15092896 7.09765625 37.203125 C7.0962413 36.25435486 7.09482635 35.30558472 7.09336853 34.32806396 C7.08777742 31.30201038 7.07522652 28.27603117 7.0625 25.25 C7.05748385 23.19661565 7.05292115 21.14323014 7.04882812 19.08984375 C7.03781089 14.05986724 7.02055233 9.02994622 7 4 C4.69 3.67 2.38 3.34 0 3 C0 2.01 0 1.02 0 0 Z " fill="#231F21" transform="translate(74,0)"/>
<path d="M0 0 C14.85 0 29.7 0 45 0 C45 4.62 45 9.24 45 14 C44.34 14 43.68 14 43 14 C42.54625 12.865625 42.0925 11.73125 41.625 10.5625 C40.42904194 6.95278308 40.42904194 6.95278308 38 6 C36.12943209 5.7724985 34.25314042 5.59037189 32.375 5.4375 C30.87066406 5.31181641 30.87066406 5.31181641 29.3359375 5.18359375 C28.56507812 5.12300781 27.79421875 5.06242188 27 5 C27.11743621 11.2297985 27.24227034 17.45941685 27.37231445 23.68896484 C27.41569752 25.80937313 27.45737007 27.92981712 27.49731445 30.05029297 C27.55493543 33.09353408 27.61865325 36.1365949 27.68359375 39.1796875 C27.70030624 40.13181122 27.71701874 41.08393494 27.73423767 42.06491089 C27.75418289 42.94567291 27.77412811 43.82643494 27.79467773 44.73388672 C27.81799416 45.89970779 27.81799416 45.89970779 27.84178162 47.08908081 C27.88783251 49.08556935 27.88783251 49.08556935 29 51 C30.97888961 51.72693904 32.97954558 52.39816251 35 53 C35 53.66 35 54.32 35 55 C27.08 55 19.16 55 11 55 C11 54.34 11 53.68 11 53 C12.98 52.34 14.96 51.68 17 51 C18.20710262 46.20165968 18.2220623 41.45996824 18.31640625 36.54296875 C18.33718735 35.64000565 18.35796844 34.73704254 18.37937927 33.80671692 C18.4445528 30.93371903 18.50360955 28.06063286 18.5625 25.1875 C18.60571586 23.23501706 18.64933112 21.28254292 18.69335938 19.33007812 C18.80020107 14.55347497 18.90155857 9.77678336 19 5 C17.06164034 5.06010418 15.12415509 5.14891717 13.1875 5.25 C11.56908203 5.31960938 11.56908203 5.31960938 9.91796875 5.390625 C6.91273268 5.73324639 6.91273268 5.73324639 5.15625 7.90625 C4.02331697 9.95777737 3.41063219 11.70045975 3 14 C2.01 14 1.02 14 0 14 C0 9.38 0 4.76 0 0 Z " fill="#231F21" transform="translate(4,0)"/>
<path d="M0 0 C98.67 0 197.34 0 299 0 C299 0.66 299 1.32 299 2 C200.33 2 101.66 2 0 2 C0 1.34 0 0.68 0 0 Z " fill="#231F21" transform="translate(1,73)"/>
<path d="M0 0 C0.99 0 1.98 0 3 0 C4.66207509 6.17135706 5.74424411 12.29793731 6.625 18.625 C6.7590625 19.54023438 6.893125 20.45546875 7.03125 21.3984375 C8.0574695 28.64480373 8.8038439 34.10212001 5.5 40.875 C5.0359375 41.84179688 4.571875 42.80859375 4.09375 43.8046875 C3.7328125 44.52914062 3.371875 45.25359375 3 46 C2.34 46 1.68 46 1 46 C0.14321806 44.5342909 -0.68416898 43.05139161 -1.5 41.5625 C-1.9640625 40.73878906 -2.428125 39.91507813 -2.90625 39.06640625 C-5.85564528 30.79756591 -3.32505003 21.35783479 -2 12.9375 C-1.80921875 11.69033203 -1.6184375 10.44316406 -1.421875 9.15820312 C-0.95387418 6.10449776 -0.47977609 3.05187356 0 0 Z " fill="#04A4A4" transform="translate(60,9)"/>
<path d="M0 0 C1.4370809 -0.05422947 2.87475462 -0.09289723 4.3125 -0.125 C5.11300781 -0.14820312 5.91351563 -0.17140625 6.73828125 -0.1953125 C9 0 9 0 12 2 C12.28072146 4.66685387 12.20020202 6.50719502 11.1875 9 C11.125625 9.66 11.06375 10.32 11 11 C13.35426499 13.77122275 13.35426499 13.77122275 16 16 C13.25 16.3125 13.25 16.3125 10 16 C7.625 13.5 7.625 13.5 6 11 C5.67 12.32 5.34 13.64 5 15 C5.66 15.33 6.32 15.66 7 16 C4.69 16 2.38 16 0 16 C0.33 15.34 0.66 14.68 1 14 C1.22858114 11.9625237 1.41024278 9.91959697 1.5625 7.875 C1.64628906 6.77929688 1.73007813 5.68359375 1.81640625 4.5546875 C1.87699219 3.71164063 1.93757813 2.86859375 2 2 C1.34 2 0.68 2 0 2 C0 1.34 0 0.68 0 0 Z M5 2 C5 3.98 5 5.96 5 8 C6.32 7.34 7.64 6.68 9 6 C8.34 4.68 7.68 3.36 7 2 C6.34 2 5.68 2 5 2 Z " fill="#231F21" transform="translate(113,89)"/>
<path d="M0 0 C4.29 0 8.58 0 13 0 C12.67 3.63 12.34 7.26 12 11 C11.34 11 10.68 11 10 11 C10 10.34 10 9.68 10 9 C8.68 9 7.36 9 6 9 C6 10.98 6 12.96 6 15 C7.98 14.67 9.96 14.34 12 14 C12 13.34 12 12.68 12 12 C12.66 12 13.32 12 14 12 C13.67 13.32 13.34 14.64 13 16 C8.71 16 4.42 16 0 16 C0.66 15.67 1.32 15.34 2 15 C2 11.04 2 7.08 2 3 C1.34 2.67 0.68 2.34 0 2 C0 1.34 0 0.68 0 0 Z M6 2 C6 3.65 6 5.3 6 7 C7.32 7 8.64 7 10 7 C10 6.34 10 5.68 10 5 C10.66 4.67 11.32 4.34 12 4 C11.67 3.34 11.34 2.68 11 2 C9.35 2 7.7 2 6 2 Z " fill="#221F21" transform="translate(80,89)"/>
<path d="M0 0 C0 1.98 0 3.96 0 6 C-0.66 6 -1.32 6 -2 6 C-2.66 5.01 -3.32 4.02 -4 3 C-4.99 3.33 -5.98 3.66 -7 4 C-4.36 5.98 -1.72 7.96 1 10 C0.6875 12.375 0.6875 12.375 0 15 C-3.6441774 17.4294516 -5.71241272 17.16179575 -10 17 C-10 15.02 -10 13.04 -10 11 C-9.01 11.495 -9.01 11.495 -8 12 C-8 12.66 -8 13.32 -8 14 C-6.68 14 -5.36 14 -4 14 C-3.67 13.01 -3.34 12.02 -3 11 C-4.175625 10.566875 -4.175625 10.566875 -5.375 10.125 C-8 9 -8 9 -10 7 C-10.125 3.875 -10.125 3.875 -10 1 C-6.78548731 -0.60725635 -3.56387464 -0.05748185 0 0 Z " fill="#221F21" transform="translate(59,89)"/>
<path d="M0 0 C4.29 0 8.58 0 13 0 C13 1.65 13 3.3 13 5 C12.34 5 11.68 5 11 5 C11 6.98 11 8.96 11 11 C10.67 10.34 10.34 9.68 10 9 C8.35 9 6.7 9 5 9 C5.33 10.65 5.66 12.3 6 14 C8.76276177 13.47731534 11.3260876 12.89130413 14 12 C13.67 13.32 13.34 14.64 13 16 C8.71 16 4.42 16 0 16 C0.66 15.67 1.32 15.34 2 15 C2 10.71 2 6.42 2 2 C1.34 2 0.68 2 0 2 C0 1.34 0 0.68 0 0 Z M5 2 C5 3.65 5 5.3 5 7 C6.65 7 8.3 7 10 7 C10.33 5.35 10.66 3.7 11 2 C9.02 2 7.04 2 5 2 Z " fill="#221F21" transform="translate(244,89)"/>
<path d="M0 0 C1 1 1 1 1.0625 3.5625 C1.041875 4.366875 1.02125 5.17125 1 6 C0.34 6 -0.32 6 -1 6 C-1.66 5.01 -2.32 4.02 -3 3 C-4.65 3.33 -6.3 3.66 -8 4 C-8.76522801 7.35458155 -8.76522801 7.35458155 -9 11 C-7.70735301 12.96431405 -7.70735301 12.96431405 -6 14 C-3.69 13.34 -1.38 12.68 1 12 C0.4375 13.9375 0.4375 13.9375 -1 16 C-4.39402785 16.87993315 -6.90163354 17.2968558 -10.3125 16.375 C-12.67074494 14.45346709 -13.26375055 12.94499781 -14 10 C-13.85914846 6.54913726 -13.34433156 4.54519164 -11.5 1.625 C-7.83259661 -0.7588122 -4.26907775 -0.5282226 0 0 Z " fill="#221F21" transform="translate(224,89)"/>
<path d="M0 0 C2.31 0 4.62 0 7 0 C7.12375 0.928125 7.2475 1.85625 7.375 2.8125 C7.81533082 6.13925235 7.81533082 6.13925235 10 9 C11.44524884 4.57394994 11.44524884 4.57394994 12 0 C13.65 0 15.3 0 17 0 C15.49637741 3.78716158 13.94512999 7.55245187 12.375 11.3125 C11.92898437 12.38113281 11.48296875 13.44976562 11.0234375 14.55078125 C10.51683594 15.76314453 10.51683594 15.76314453 10 17 C9.34 17 8.68 17 8 17 C7.59007812 16.00097656 7.18015625 15.00195312 6.7578125 13.97265625 C6.2138927 12.66912431 5.66960265 11.36574681 5.125 10.0625 C4.85558594 9.40314453 4.58617187 8.74378906 4.30859375 8.06445312 C2.95348166 4.35445869 2.95348166 4.35445869 0 2 C0 1.34 0 0.68 0 0 Z " fill="#221F21" transform="translate(145,89)"/>
<path d="M0 0 C6.6 0 13.2 0 20 0 C20 0.99 20 1.98 20 3 C18.865625 3.268125 17.73125 3.53625 16.5625 3.8125 C14.7990625 4.4003125 14.7990625 4.4003125 13 5 C12.67 5.99 12.34 6.98 12 8 C10.68 8 9.36 8 8 8 C7.67 6.68 7.34 5.36 7 4 C4.69 3.67 2.38 3.34 0 3 C0 2.01 0 1.02 0 0 Z " fill="#04A4A4" transform="translate(52,0)"/>
<path d="M0 0 C2.31 0 4.62 0 7 0 C7 0.66 7 1.32 7 2 C6.34 2 5.68 2 5 2 C5 6.29 5 10.58 5 15 C5.66 15.33 6.32 15.66 7 16 C4.69 16 2.38 16 0 16 C0.33 15.34 0.66 14.68 1 14 C1.22858114 11.9625237 1.41024278 9.91959697 1.5625 7.875 C1.64628906 6.77929688 1.73007813 5.68359375 1.81640625 4.5546875 C1.87699219 3.71164063 1.93757812 2.86859375 2 2 C1.34 2 0.68 2 0 2 C0 1.34 0 0.68 0 0 Z " fill="#231E21" transform="translate(182,89)"/>
</svg>
